<svg xmlns="http://www.w3.org/2000/svg" viewBox="0 0 512 512">
  <defs>
    <linearGradient id="gold" x1="0%" y1="0%" x2="100%" y2="100%">
      <stop offset="0%" stop-color="#F59E0B"/>
      <stop offset="100%" stop-color="#FBBF24"/>
    </linearGradient>
  </defs>
  <rect width="512" height="512" rx="96" fill="#1F2937"/>
  <g transform="translate(128, 128) scale(0.5)">
    <path fill="url(#gold)" d="M256 80c-44.2 0-80 35.8-80 80c0 44.2 35.8 80 80 80s80-35.8 80-80c0-44.2-35.8-80-80-80zm0 128c-26.5 0-48-21.5-48-48s21.5-48 48-48s48 21.5 48 48s-21.5 48-48 48zm0 32c-70.7 0-128 57.3-128 128v48c0 17.7 14.3 32 32 32h192c17.7 0 32-14.3 32-32v-48c0-70.7-57.3-128-128-128z"/>
    <circle cx="256" cy="160" r="60" fill="url(#gold)"/>
    <path fill="url(#gold)" d="M256 280c-61.9 0-112 50.1-112 112v24h224v-24c0-61.9-50.1-112-112-112z"/>
    <polygon fill="url(#gold)" points="256,40 280,100 340,100 292,140 312,200 256,168 200,200 220,140 172,100 232,100"/>
  </g>
</svg>
